<?xml version="1.0" encoding="UTF-8" standalone="yes"?><svg xmlns="http://www.w3.org/2000/svg" xmlns:xlink="http://www.w3.org/1999/xlink" height="641px" style="width:575px;height:641px;" version="1.1" viewBox="0 0 575 641" width="575px"><defs><filter height="300%" id="f1" width="300%" x="-1" y="-1"><feGaussianBlur result="blurOut" stdDeviation="2.0"/><feColorMatrix in="blurOut" result="blurOut2" type="matrix" values="0 0 0 0 0 0 0 0 0 0 0 0 0 0 0 0 0 0 .4 0"/><feOffset dx="4.0" dy="4.0" in="blurOut2" result="blurOut3"/><feBlend in="SourceGraphic" in2="blurOut3" mode="normal"/></filter></defs><g><a target="_top" xlink:href="urn:x-ericsson:r2:reg-doc:*-*:*:*#HCM?title=class%20HealthCheckM" xlink:title="urn:x-ericsson:r2:reg-doc:*-*:*:*#HCM?title=class%20HealthCheckM"><rect fill="#C7DDF0" filter="url(#f1)" height="23.9629" style="stroke: #6DA3D9; stroke-width: 1.5;" width="88" x="267" y="237"/><text fill="#000000" font-family="sans-serif" font-size="12" lengthAdjust="spacingAndGlyphs" textLength="82" x="270" y="253.4023">HealthCheckM</text></a><a target="_top" xlink:href="urn:x-ericsson:r2:reg-doc:*-*:*:*#HCM?title=class%20HcJob" xlink:title="urn:x-ericsson:r2:reg-doc:*-*:*:*#HCM?title=class%20HcJob"><rect fill="#C7DDF0" filter="url(#f1)" height="23.9629" style="stroke: #6DA3D9; stroke-width: 1.5;" width="40" x="228" y="361"/><text fill="#000000" font-family="sans-serif" font-size="12" lengthAdjust="spacingAndGlyphs" textLength="34" x="231" y="377.4023">HcJob</text></a><a target="_top" xlink:href="urn:x-ericsson:r2:reg-doc:*-*:*:*#HCM?title=class%20HcRule" xlink:title="urn:x-ericsson:r2:reg-doc:*-*:*:*#HCM?title=class%20HcRule"><rect fill="#C7DDF0" filter="url(#f1)" height="23.9629" style="stroke: #6DA3D9; stroke-width: 1.5;" width="46" x="351" y="361"/><text fill="#000000" font-family="sans-serif" font-size="12" lengthAdjust="spacingAndGlyphs" textLength="40" x="354" y="377.4023">HcRule</text></a><a target="_top" xlink:href="urn:x-ericsson:r2:reg-doc:*-*:*:*#HCM?title=class%20HcJobScheduler" xlink:title="urn:x-ericsson:r2:reg-doc:*-*:*:*#HCM?title=class%20HcJobScheduler"><rect fill="#C7DDF0" filter="url(#f1)" height="23.9629" style="stroke: #6DA3D9; stroke-width: 1.5;" width="96" x="200" y="485"/><text fill="#000000" font-family="sans-serif" font-size="12" lengthAdjust="spacingAndGlyphs" textLength="90" x="203" y="501.4023">HcJobScheduler</text></a><a target="_top" xlink:href="urn:x-ericsson:r2:reg-doc:*-*:*:*#HCM?title=class%20HcSingleEvent" xlink:title="urn:x-ericsson:r2:reg-doc:*-*:*:*#HCM?title=class%20HcSingleEvent"><rect fill="#C7DDF0" filter="url(#f1)" height="23.9629" style="stroke: #6DA3D9; stroke-width: 1.5;" width="85" x="31" y="609"/><text fill="#000000" font-family="sans-serif" font-size="12" lengthAdjust="spacingAndGlyphs" textLength="79" x="34" y="625.4023">HcSingleEvent</text></a><a target="_top" xlink:href="urn:x-ericsson:r2:reg-doc:*-*:*:*#HCM?title=class%20HcPeriodicEvent" xlink:title="urn:x-ericsson:r2:reg-doc:*-*:*:*#HCM?title=class%20HcPeriodicEvent"><rect fill="#C7DDF0" filter="url(#f1)" height="23.9629" style="stroke: #6DA3D9; stroke-width: 1.5;" width="98" x="199" y="609"/><text fill="#000000" font-family="sans-serif" font-size="12" lengthAdjust="spacingAndGlyphs" textLength="92" x="202" y="625.4023">HcPeriodicEvent</text></a><a target="_top" xlink:href="urn:x-ericsson:r2:reg-doc:*-*:*:*#HCM?title=class%20HcCalendarBasedPeriodicEvent" xlink:title="urn:x-ericsson:r2:reg-doc:*-*:*:*#HCM?title=class%20HcCalendarBasedPeriodicEvent"><rect fill="#C7DDF0" filter="url(#f1)" height="23.9629" style="stroke: #6DA3D9; stroke-width: 1.5;" width="185" x="381" y="609"/><text fill="#000000" font-family="sans-serif" font-size="12" lengthAdjust="spacingAndGlyphs" textLength="179" x="384" y="625.4023">HcCalendarBasedPeriodicEvent</text></a><a target="_top" xlink:href="urn:x-ericsson:r2:reg-doc:*-*:*:*#ECIM_Top?title=class%20ManagedElement" xlink:title="urn:x-ericsson:r2:reg-doc:*-*:*:*#ECIM_Top?title=class%20ManagedElement"><rect fill="#C7DDF0" filter="url(#f1)" height="23.9629" style="stroke: #6DA3D9; stroke-width: 1.5;" width="105" x="341" y="8"/><text fill="#000000" font-family="sans-serif" font-size="12" lengthAdjust="spacingAndGlyphs" textLength="99" x="344" y="24.4023">ManagedElement</text></a><a target="_top" xlink:href="urn:x-ericsson:r2:reg-doc:*-*:*:*#ECIM_Top?title=class%20SystemFunctions" xlink:title="urn:x-ericsson:r2:reg-doc:*-*:*:*#ECIM_Top?title=class%20SystemFunctions"><rect fill="#C7DDF0" filter="url(#f1)" height="23.9629" style="stroke: #6DA3D9; stroke-width: 1.5;" width="99" x="262" y="113"/><text fill="#000000" font-family="sans-serif" font-size="12" lengthAdjust="spacingAndGlyphs" textLength="93" x="265" y="129.4023">SystemFunctions</text></a><a target="_top" xlink:href="urn:x-ericsson:r2:reg-doc:*-*:*:*#ECIM_Top?title=class%20Transport" xlink:title="urn:x-ericsson:r2:reg-doc:*-*:*:*#ECIM_Top?title=class%20Transport"><rect fill="#C7DDF0" filter="url(#f1)" height="23.9629" style="stroke: #6DA3D9; stroke-width: 1.5;" width="63" x="445" y="113"/><text fill="#000000" font-family="sans-serif" font-size="12" lengthAdjust="spacingAndGlyphs" textLength="57" x="448" y="129.4023">Transport</text></a><path d="M299,272 C286,299 264,341 254,361 " fill="none" style="stroke: #808080; stroke-width: 1.0;"/><polygon fill="#808080" points="305,260,298.7392,263.578,299.634,270.7334,305.8948,267.1554,305,260" style="stroke: #808080; stroke-width: 1.0;"/><text fill="#000000" font-family="sans-serif" font-size="13" lengthAdjust="spacingAndGlyphs" textLength="6" x="265.825" y="350.3737">*</text><path d="M248,397 C248,424 248,466 248,485 " fill="none" style="stroke: #808080; stroke-width: 1.0;"/><polygon fill="#808080" points="248,384,244,390,248,396,252,390,248,384" style="stroke: #808080; stroke-width: 1.0;"/><text fill="#000000" font-family="sans-serif" font-size="13" lengthAdjust="spacingAndGlyphs" textLength="24" x="241.125" y="474.3287">0..1</text><path d="M220,516 C183,542 119,587 89,609 " fill="none" style="stroke: #808080; stroke-width: 1.0;"/><polygon fill="#808080" points="231,508,223.7949,508.2947,221.2958,515.0589,228.5009,514.7642,231,508" style="stroke: #808080; stroke-width: 1.0;"/><text fill="#000000" font-family="sans-serif" font-size="13" lengthAdjust="spacingAndGlyphs" textLength="6" x="119.5875" y="598.0157">*</text><path d="M248,521 C248,548 248,590 248,609 " fill="none" style="stroke: #808080; stroke-width: 1.0;"/><polygon fill="#808080" points="248,508,244,514,248,520,252,514,248,508" style="stroke: #808080; stroke-width: 1.0;"/><text fill="#000000" font-family="sans-serif" font-size="13" lengthAdjust="spacingAndGlyphs" textLength="6" x="250.125" y="598.3287">*</text><path d="M282,514 C329,540 414,588 453,609 " fill="none" style="stroke: #808080; stroke-width: 1.0;"/><polygon fill="#808080" points="270,508,273.578,514.2608,280.7334,513.366,277.1554,507.1052,270,508" style="stroke: #808080; stroke-width: 1.0;"/><text fill="#000000" font-family="sans-serif" font-size="13" lengthAdjust="spacingAndGlyphs" textLength="6" x="434.8906" y="598.3338">*</text><path d="M323,272 C336,299 358,341 368,361 " fill="none" style="stroke: #808080; stroke-width: 1.0;"/><polygon fill="#808080" points="317,260,316.1052,267.1554,322.366,270.7334,323.2608,263.578,317,260" style="stroke: #808080; stroke-width: 1.0;"/><text fill="#000000" font-family="sans-serif" font-size="13" lengthAdjust="spacingAndGlyphs" textLength="6" x="363.6125" y="350.1683">*</text><path d="M375,42 C358,64 333,96 320,113 " fill="none" style="stroke: #808080; stroke-width: 1.0;"/><polygon fill="#808080" points="383,32,376.1283,34.1863,375.5035,41.3703,382.3752,39.184,383,32" style="stroke: #808080; stroke-width: 1.0;"/><text fill="#000000" font-family="sans-serif" font-size="13" lengthAdjust="spacingAndGlyphs" textLength="8" x="335.2813" y="102.1193">1</text><path d="M411,42 C428,64 454,96 467,113 " fill="none" style="stroke: #808080; stroke-width: 1.0;"/><polygon fill="#808080" points="403,32,403.6248,39.184,410.4965,41.3703,409.8717,34.1863,403,32" style="stroke: #808080; stroke-width: 1.0;"/><text fill="#000000" font-family="sans-serif" font-size="13" lengthAdjust="spacingAndGlyphs" textLength="24" x="450.3406" y="102.1683">0..1</text><path d="M311,149 C311,176 311,218 311,237 " fill="none" style="stroke: #808080; stroke-width: 1.0;"/><polygon fill="#808080" points="311,136,307,142,311,148,315,142,311,136" style="stroke: #808080; stroke-width: 1.0;"/><text fill="#000000" font-family="sans-serif" font-size="13" lengthAdjust="spacingAndGlyphs" textLength="8" x="312.125" y="226.3287">1</text></g></svg>